<svg xmlns="http://www.w3.org/2000/svg" viewBox="0 0 100 100"><rect width="100" height="100" rx="18" fill="#171511"/><g transform="translate(14.175 70.165) scale(0.05487 -0.05487)"><path fill="#ddd6c6" d="M256 -8Q229 -8 202.0 -3.0Q175 2 151.5 15.5Q128 29 110.0 49.5Q92 70 80.5 94.5Q69 119 65.0 146.0Q61 173 61 200V320Q61 347 65.0 374.0Q69 401 80.5 425.5Q92 450 110.0 470.5Q128 491 151.5 504.5Q175 518 202.0 523.0Q229 528 256 528Q303 528 348.0 513.0Q393 498 431 471V340H362V429Q338 443 311.0 450.5Q284 458 256 458Q239 458 222.0 454.0Q205 450 190.5 440.5Q176 431 166.0 417.0Q156 403 149.5 387.0Q143 371 141.0 354.0Q139 337 139 320V200Q139 183 141.0 166.0Q143 149 149.5 133.0Q156 117 166.0 103.0Q176 89 190.5 79.5Q205 70 222.0 66.0Q239 62 256 62Q284 62 311.0 69.5Q338 77 362 91V180H431V49Q393 22 348.0 7.0Q303 -8 256 -8ZM576 0V70H676V402H569V473H676V579Q676 599 678.5 619.0Q681 639 688.0 658.0Q695 677 707.0 693.5Q719 710 735.5 721.5Q752 733 772.0 738.0Q792 743 812 743Q840 743 866.5 734.0Q893 725 912.0 704.5Q931 684 939.5 657.0Q948 630 948 603V600H870V601Q870 614 867.0 627.0Q864 640 856.5 650.5Q849 661 837.0 667.0Q825 673 812 673Q797 673 784.0 663.5Q771 654 764.5 639.5Q758 625 756.0 610.0Q754 595 754 579V473H913V403H754V70H886V0Z"/><path fill="#9cc2a6" d="M1089 70Q1089 86 1093.5 101.0Q1098 116 1109.0 127.5Q1120 139 1135.5 143.5Q1151 148 1167 148Q1182 148 1197.5 143.5Q1213 139 1224.0 127.5Q1235 116 1240.0 101.0Q1245 86 1245 70Q1245 54 1240.0 39.0Q1235 24 1224.0 12.5Q1213 1 1197.5 -3.5Q1182 -8 1167 -8Q1151 -8 1135.5 -3.5Q1120 1 1109.0 12.5Q1098 24 1093.5 39.0Q1089 54 1089 70Z"/></g></svg>